<svg width="1600" height="1200" viewBox="0 0 1600 1200" fill="none" xmlns="http://www.w3.org/2000/svg">
<rect width="1600" height="1200" fill="#0E141B"/>
<rect x="70" y="70" width="1460" height="1060" rx="48" fill="url(#paint0_linear)"/>
<rect x="180" y="190" width="760" height="560" rx="28" fill="#F1E6D4" fill-opacity="0.08" stroke="#F1E6D4" stroke-opacity="0.16" stroke-width="8"/>
<rect x="235" y="245" width="650" height="450" rx="20" fill="#FFF9EF" fill-opacity="0.06"/>
<path d="M310 325H435V400H310V325Z" stroke="#F8D06E" stroke-width="10"/>
<path d="M310 430H435V505H310V430Z" stroke="#F8D06E" stroke-width="10"/>
<path d="M310 535H435V610H310V535Z" stroke="#F8D06E" stroke-width="10"/>
<path d="M435 362.5H540V467.5H435" stroke="#F8D06E" stroke-width="10"/>
<path d="M435 572.5H540V467.5" stroke="#F8D06E" stroke-width="10"/>
<path d="M540 467.5H655V467.5" stroke="#F8D06E" stroke-width="10"/>
<path d="M1050 320C1050 277.072 1084.57 242.5 1127.5 242.5C1170.43 242.5 1205 277.072 1205 320V372H1050V320Z" fill="#C26B4A"/>
<circle cx="1127.5" cy="220.5" r="58.5" fill="#E7B08C"/>
<path d="M1225 372H1030L980 720H1275L1225 372Z" fill="#3A7A63"/>
<path d="M1278 800C1231.43 878.667 1157.43 918 1056 918C954.573 918 873.906 878.667 814 800H1278Z" fill="#11181F"/>
<circle cx="250" cy="920" r="72" fill="#6A7F5A"/>
<circle cx="430" cy="900" r="84" fill="#C58A52"/>
<circle cx="640" cy="915" r="76" fill="#7B8FA8"/>
<circle cx="840" cy="905" r="84" fill="#A86A6A"/>
<rect x="214" y="984" width="712" height="14" rx="7" fill="#F8D06E" fill-opacity="0.7"/>
<text x="180" y="126" fill="#F8D06E" font-family="Arial, sans-serif" font-size="44" font-weight="700">Marta turnirs</text>
<text x="180" y="1080" fill="#FFF9EF" font-family="Arial, sans-serif" font-size="72" font-weight="700">Kopskats pie zara</text>
<text x="180" y="1135" fill="#B8C2CC" font-family="Arial, sans-serif" font-size="34">2026. gada marta vakars</text>
<defs>
<linearGradient id="paint0_linear" x1="140" y1="120" x2="1450" y2="1080" gradientUnits="userSpaceOnUse">
<stop stop-color="#182531"/>
<stop offset="0.55" stop-color="#16212A"/>
<stop offset="1" stop-color="#20181C"/>
</linearGradient>
</defs>
</svg>
